<?xml version="1.0" encoding="UTF-8"?>
<svg id="logo-mark-2" data-name="logo-mark" xmlns="http://www.w3.org/2000/svg" viewBox="0 0 384 192">
  <path id="logo-symbol" d="M364.73,19.63c-2.01,3.98-4.04,7.96-6.02,11.95-13.6,27.45-28.58,54.41-45,80.84-7.78,12.52-16.15,24.86-28.8,34.89-5.65,4.48-11.67,8.73-20.36,9.62-9.32.96-16.47-2.87-23.28-7.23-5.99-3.83-10.99-8.42-16.01-12.98-10.22-9.3-21.14-17.98-34.75-24.42-14.11-6.68-29.1-8.75-44.91-7.59-18.44,1.35-34.25,7.37-49.15,14.97-28.23,14.4-53.21,31.62-75.14,51.46-.51.46-1.07.89-1.88,1.57-.49-1.34.31-2.16.71-2.98,11.53-23.64,24.67-46.71,37.68-69.84,7.03-12.51,14.19-24.98,22.78-36.87,6.96-9.64,14.21-19.19,26.04-25.75,12.45-6.9,21.56-5.74,31.56-.1,11.11,6.27,20.34,14.1,30.21,21.4,5.25,3.88,10.48,7.77,16.08,11.35,9.96,6.37,20.66,10.81,33.73,12.23,14.09,1.52,27.33.65,40.19-3.02,12.5-3.57,23.91-8.67,34.9-14.34,22.18-11.45,41.65-25.39,61.28-39.18,3.05-2.15,6.21-4.21,9.32-6.31.28.11.55.22.83.33Z" fill="#231e33"/>
</svg>