<?xml version="1.0" encoding="UTF-8"?>
<svg id="logo-mark-4" data-name="logo-mark" xmlns="http://www.w3.org/2000/svg" viewBox="0 0 96 48">
  <path id="logo-symbol" d="M91.18,4.91c-.5,1-1.01,1.99-1.51,2.99-3.4,6.86-7.14,13.6-11.25,20.21-1.95,3.13-4.04,6.22-7.2,8.72-1.41,1.12-2.92,2.18-5.09,2.41-2.33.24-4.12-.72-5.82-1.81-1.5-.96-2.75-2.1-4-3.25-2.55-2.33-5.29-4.49-8.69-6.1-3.53-1.67-7.28-2.19-11.23-1.9-4.61.34-8.56,1.84-12.29,3.74-7.06,3.6-13.3,7.9-18.79,12.87-.13.12-.27.22-.47.39-.12-.34.08-.54.18-.75,2.88-5.91,6.17-11.68,9.42-17.46,1.76-3.13,3.55-6.24,5.69-9.22,1.74-2.41,3.55-4.8,6.51-6.44,3.11-1.73,5.39-1.44,7.89-.03,2.78,1.57,5.08,3.53,7.55,5.35,1.31.97,2.62,1.94,4.02,2.84,2.49,1.59,5.16,2.7,8.43,3.06,3.52.38,6.83.16,10.05-.75,3.12-.89,5.98-2.17,8.73-3.59,5.55-2.86,10.41-6.35,15.32-9.79.76-.54,1.55-1.05,2.33-1.58.07.03.14.05.21.08Z" fill="#231e33"/>
</svg>