<?xml version="1.0" encoding="UTF-8"?>
<svg id="logo-mark" xmlns="http://www.w3.org/2000/svg" viewBox="0 0 48 24">
  <path id="logo-symbol" d="M45.59,2.45c-.25.5-.51.99-.75,1.49-1.7,3.43-3.57,6.8-5.62,10.1-.97,1.57-2.02,3.11-3.6,4.36-.71.56-1.46,1.09-2.55,1.2-1.17.12-2.06-.36-2.91-.9-.75-.48-1.37-1.05-2-1.62-1.28-1.16-2.64-2.25-4.34-3.05-1.76-.83-3.64-1.09-5.61-.95-2.31.17-4.28.92-6.14,1.87-3.53,1.8-6.65,3.95-9.39,6.43-.06.06-.13.11-.23.2-.06-.17.04-.27.09-.37,1.44-2.96,3.08-5.84,4.71-8.73.88-1.56,1.77-3.12,2.85-4.61.87-1.2,1.78-2.4,3.26-3.22,1.56-.86,2.69-.72,3.94-.01,1.39.78,2.54,1.76,3.78,2.68.66.49,1.31.97,2.01,1.42,1.24.8,2.58,1.35,4.22,1.53,1.76.19,3.42.08,5.02-.38,1.56-.45,2.99-1.08,4.36-1.79,2.77-1.43,5.21-3.17,7.66-4.9.38-.27.78-.53,1.16-.79.03.01.07.03.1.04Z" fill="#231e33"/>
</svg>