<?xml version="1.0" encoding="UTF-8"?>
<svg id="logo-mark-3" data-name="logo-mark" xmlns="http://www.w3.org/2000/svg" viewBox="0 0 192 96">
  <path id="logo-symbol" d="M182.37,9.81c-1,1.99-2.02,3.98-3.01,5.98-6.8,13.73-14.29,27.21-22.5,40.42-3.89,6.26-8.07,12.43-14.4,17.45-2.82,2.24-5.83,4.36-10.18,4.81-4.66.48-8.23-1.43-11.64-3.62-2.99-1.92-5.5-4.21-8-6.49-5.11-4.65-10.57-8.99-17.38-12.21-7.05-3.34-14.55-4.37-22.46-3.8-9.22.67-17.12,3.68-24.57,7.48-14.12,7.2-26.61,15.81-37.57,25.73-.26.23-.53.45-.94.78-.25-.67.15-1.08.36-1.49,5.77-11.82,12.34-23.36,18.84-34.92,3.52-6.25,7.1-12.49,11.39-18.43,3.48-4.82,7.11-9.59,13.02-12.87,6.22-3.45,10.78-2.87,15.78-.05,5.56,3.13,10.17,7.05,15.11,10.7,2.62,1.94,5.24,3.89,8.04,5.68,4.98,3.19,10.33,5.41,16.86,6.11,7.05.76,13.67.33,20.1-1.51,6.25-1.78,11.96-4.33,17.45-7.17,11.09-5.73,20.83-12.69,30.64-19.59,1.53-1.07,3.11-2.1,4.66-3.15.14.05.28.11.41.16Z" fill="#231e33"/>
</svg>