<svg id="Logo-Swch" xmlns="http://www.w3.org/2000/svg" xmlns:xlink="http://www.w3.org/1999/xlink" width="179.785" height="170" viewBox="0 0 179.785 170">
  <defs>
    <clipPath id="clip-path">
      <rect id="Rectángulo_1" data-name="Rectángulo 1" width="179.785" height="170" fill="none"/>
    </clipPath>
  </defs>
  <g id="Grupo_1" data-name="Grupo 1" clip-path="url(#clip-path)">
    <path id="Trazado_1" data-name="Trazado 1" d="M.351,101.973c-1.339-2.648-.7-14.746,36.626-30.707L146.545,23.807C182.471,8.246,179.432,0,179.432,0V68.027c1.339,2.649.7,13.425-36.626,29.386L33.239,144.871C-2.687,160.433.351,170,.351,170Z" transform="translate(0)" fill="#ffd300"/>
    <path id="Trazado_2" data-name="Trazado 2" d="M142.806,30.268C180.132,14.306,180.771,2.649,179.432,0c0,0,3.038,8.246-32.887,23.807L36.978,71.266C-.348,87.227-.987,99.324.351,101.973c0,0-3.038-9.567,32.887-25.128Z" transform="translate(0)" fill="#221f1c"/>
    <path id="Trazado_3" data-name="Trazado 3" d="M142.806,240.4c37.326-15.961,37.965-26.738,36.626-29.386,0,0,3.038,8.246-32.887,23.807L36.978,282.28C-.348,298.242-.987,310.339.351,312.988c0,0-3.038-9.567,32.887-25.128Z" transform="translate(0 -142.988)" fill="#221f1c"/>
    <path id="Trazado_4" data-name="Trazado 4" d="M442.491,145.715l6.221-3.058c-.1-3.731-.7-8.961-2.555-8.165-2.252.964-3.185,6.917-3.185,13.1s1.963,10.048,3.688,10.013c2.231-.044,3.944-5.046,3.891-7.285l3.293,1.32c-.482,1.53-1.63,6.444-6.266,8.6-5.15,2.4-10.353-4.209-10.353-11.449,0-7.289,2.713-14.308,7.828-16.586,5.643-2.513,9.292,2.9,8.932,10.771L441.821,148.9Z" transform="translate(-296.273 -89.168)" fill="#221f1c"/>
    <path id="Trazado_5" data-name="Trazado 5" d="M270.27,224.749l6.221-3.058c-.1-3.731-.7-8.962-2.555-8.165-2.252.964-3.185,6.917-3.185,13.1s1.963,10.048,3.688,10.013c2.231-.045,3.944-5.046,3.891-7.285l3.293,1.321c-.482,1.529-1.63,6.444-6.266,8.6-5.15,2.4-10.353-4.209-10.353-11.449,0-7.288,2.713-14.307,7.828-16.586,5.643-2.514,9.292,2.9,8.932,10.77L269.6,227.936Z" transform="translate(-179.573 -142.723)" fill="#221f1c"/>
    <path id="Trazado_6" data-name="Trazado 6" d="M92.918,309.523c-.17,3.179-1.552,6.536-3.386,7.158-2.578.876-4.188-4.308-4.188-10.837,0-5.847,1.888-12.887,5.794-13.054.092,0,.178,0,.265.007a5.443,5.443,0,0,1,2.742.911l.018-4.869C83.8,291.1,79.6,296.8,79.6,307.442c0,6.058,3.284,12.572,8.348,12.47,3.614-.073,7.332-4.943,8.266-9.1Z" transform="translate(-53.936 -195.723)" fill="#221f1c"/>
    <path id="Trazado_7" data-name="Trazado 7" d="M188.468,234.925l-6.754,2.922c.846.513.824,1.044,1.275,2.414.573,1.743,5.23,22.576,5.23,22.576l4.288-1.78,3.169-14.925,3,12.254,4.3-1.86s4.171-25.561,4.484-27.534c.035-.219.074-.419.118-.61.025-.12.056-.243.095-.367a5.9,5.9,0,0,1,.724-1.714l-4.108,1.777c.292.259.339.8.189,1.978-.176,1.383-2.867,17.179-2.867,17.179l-4.21-16.177-2.519,1.09-3.431,20.5s-2.745-12.872-3.006-14.887a9.506,9.506,0,0,1,.017-2.836" transform="translate(-123.133 -153.346)" fill="#221f1c"/>
    <path id="Trazado_8" data-name="Trazado 8" d="M496.549,113.141a4.584,4.584,0,0,1,4.231-4.636,2.936,2.936,0,0,1,.623.058l0-.005s.046.009.125.027l.08.021a6.212,6.212,0,0,1,2.4,1.249l.022-4.65c-2.388.448-10.785,1.952-10.785,11.483,0,6,8,8.72,8,12.522a4.875,4.875,0,0,1-2.977,4.7v0c-.04.017-.082.029-.122.045l-.055.021a7.963,7.963,0,0,1-4.976-.152l-.025,3.529c3.738-.057,11.993-2.2,11.993-11.087,0-7.5-8.526-8.037-8.526-13.123" transform="translate(-334.122 -71.289)" fill="#221f1c"/>
    <path id="Trazado_9" data-name="Trazado 9" d="M533.873,85.461a2.957,2.957,0,0,0-2.92,2.858,2.72,2.72,0,0,0,2.83,2.736,2.96,2.96,0,0,0,2.932-2.859,2.722,2.722,0,0,0-2.842-2.734m-.08,5.18a2.311,2.311,0,0,1-2.415-2.328,2.528,2.528,0,0,1,2.487-2.447,2.322,2.322,0,0,1,2.415,2.341,2.5,2.5,0,0,1-2.486,2.434" transform="translate(-359.784 -57.91)" fill="#221f1c"/>
    <path id="Trazado_10" data-name="Trazado 10" d="M538.46,92.114a.919.919,0,0,1-.031-.27l-.009-.417a.594.594,0,0,0-.106-.387.606.606,0,0,0-.278-.2.864.864,0,0,0,.345-.292.994.994,0,0,0,.126-.46.706.706,0,0,0-.45-.733,1.55,1.55,0,0,0-.608-.09l-1.493.03-.045,3.126.442-.012.022-1.332.981-.02a1.057,1.057,0,0,1,.39.046.416.416,0,0,1,.237.406l.019.523c0,.122.014.208.016.248s.022.066.035.1l.53-.019V92.3a.222.222,0,0,1-.122-.182m-.592-1.547a.859.859,0,0,1-.489.134l-1,.018.02-1.066,1.06-.021a.816.816,0,0,1,.347.061.427.427,0,0,1,.238.447.465.465,0,0,1-.176.427" transform="translate(-363.143 -60.487)" fill="#221f1c"/>
    <path id="Trazado_11" data-name="Trazado 11" d="M30.564,295.1c0-3.2,2.074-6.242,5.527-6.5a6.423,6.423,0,0,1,4.34,1.221l.04-6.4c-6.832.664-15.325,5.89-15.325,15.9,0,9.48,12.35,15.6,12.4,23.121.031,4.647-1.519,7.412-4.2,8.362a10.4,10.4,0,0,1-6.849-.22v7.281a19.74,19.74,0,0,0,16.463-19.413c0-12.946-12.4-15.135-12.4-23.352" transform="translate(-17.039 -192.053)" fill="#221f1c"/>
    <path id="Trazado_12" data-name="Trazado 12" d="M138.605,282.532h.024l-6.025,2.6a11.5,11.5,0,0,0,.378-3.336c0-2.179,0-29.812,0-31.619h0V249.3a2.916,2.916,0,0,0-.644-2.164l5.8-2.849s.018,25.558.024,33.41l0-.006s-.134,4.877.445,4.846" transform="translate(-89.675 -165.53)" fill="#221f1c"/>
    <path id="Trazado_13" data-name="Trazado 13" d="M151.555,293.262c-.008-1.754,0-15.725,0-18.383,0-1.995-.462-3.338-1.972-2.794-2.126.766-3.081,2.94-3.081,6.549,0,2.877-1.824-1.651-1.824-1.651l1.462-2.927c.362-3.109,3.681-6.611,6.6-6.669,3.37-.068,3.818,3.64,3.818,6.655v17.075s.065,2.128.68,2.633l-6.075,2.629a8.671,8.671,0,0,0,.394-3.117" transform="translate(-98.037 -181.187)" fill="#221f1c"/>
    <path id="Trazado_14" data-name="Trazado 14" d="M331.665,189.175c1.226-2.811,3.477-6.121,7.037-6.347,3.141-.2,6.129,2.833,6.129,12.864,0,7.624-3.842,15.5-8.564,15.8-1.884.12-3.978-1.147-4.4-2.072l.5-4.187s1.525,3.334,3.759,2.68,3.385-5.545,3.385-12.061c0-4.856-1.271-8.367-3.426-8.23-2.118.134-3.171,4.027-3.171,6.579,0,2.219-2.092-4.117-2.092-4.117Z" transform="translate(-224.172 -123.881)" fill="#221f1c"/>
    <path id="Trazado_15" data-name="Trazado 15" d="M320.692,227.04c0-.11,0-.276,0-.491.007-.336,0-.7-.008-1.085-.049-6.143-.269-26.707-.269-26.707a4.339,4.339,0,0,0-.046-.642,4.115,4.115,0,0,0-.87-2.8l4.93-2.141.724,2.278s.432,25,.47,28.275l0,0v.31c0,.035.01.071.012.106l.028,1.7a4.16,4.16,0,0,0,.422,1.934l-5.846,2.588a7.992,7.992,0,0,0,.456-3.318" transform="translate(-216.498 -130.896)" fill="#221f1c"/>
    <path id="Trazado_16" data-name="Trazado 16" d="M390.269,159.966c1.226-2.811,3.477-6.121,7.037-6.347,3.141-.2,6.129,2.832,6.129,12.864,0,7.624-3.842,15.5-8.564,15.8-1.884.12-3.978-1.147-4.4-2.072l.5-4.187s1.526,3.334,3.759,2.68,3.385-5.545,3.385-12.062c0-4.855-1.271-8.367-3.426-8.23-2.118.135-3.171,4.027-3.171,6.579,0,2.219-2.092-4.117-2.092-4.117Z" transform="translate(-263.883 -104.089)" fill="#221f1c"/>
    <path id="Trazado_17" data-name="Trazado 17" d="M379.3,197.831c0-.11,0-.276,0-.491.007-.336,0-.7-.008-1.086-.049-6.143-.269-26.707-.269-26.707a4.391,4.391,0,0,0-.046-.642,4.114,4.114,0,0,0-.87-2.8l4.93-2.141.724,2.278s.432,25,.47,28.275l0,0v.31c0,.035.01.071.012.106l.028,1.7a4.161,4.161,0,0,0,.422,1.934l-5.846,2.588a7.99,7.99,0,0,0,.456-3.318" transform="translate(-256.21 -111.103)" fill="#221f1c"/>
    <path id="Trazado_18" data-name="Trazado 18" d="M264.854,86.262c0,11.507-8.08,20.827-18.034,20.827s-18.035-9.32-18.035-20.827,8.071-20.83,18.035-20.83,18.034,9.32,18.034,20.83" transform="translate(-155.029 -44.338)" fill="#fff"/>
    <path id="Trazado_19" data-name="Trazado 19" d="M266.531,89.958c0,10.536-7.4,19.069-16.511,19.069s-16.512-8.533-16.512-19.069,7.39-19.071,16.513-19.071,16.511,8.533,16.511,19.071" transform="translate(-158.229 -48.034)" fill="#e1001e"/>
    <path id="Trazado_20" data-name="Trazado 20" d="M268.768,93.843l1.8,6.61c-.126,0-1.309-.581-1.478-1.208-.858-2.957-.977-3.491-1.521-5.3a2.544,2.544,0,0,0-.856-1.252,1.632,1.632,0,0,0-1.838.172,1.778,1.778,0,0,1,1.39-.881,2.24,2.24,0,0,1,2.5,1.861m-15.655,11.1s.506-.819,1.2-.819l7.5.007s1.273-.027,1.638-.467c.306.435,1.665.47,1.665.47l7.088.009c.53,0,1.124.82,1.124.82l-20.208-.021m11.365-3.055c-.253,0-1.027-.764-1.015-2.144a2.33,2.33,0,0,1-1.078,2.144c-.76-.253-1.848.147-1.594.142a2.916,2.916,0,0,1,2.138.728c.312.249.25.307,0,.4a2.967,2.967,0,0,1-1.317.253c-1.012.042-1.627-.56-1.812-.5a3.589,3.589,0,0,1-1.7.39l-2.7.151c-.516,0-.449-.3,0-.3a3.594,3.594,0,0,0,1.309-.392,7,7,0,0,1-2.329-.339c-.506-.247,0-.293.065-.293.124,0,.823-.1,1.082-.1.188,0,.188,0,.177-.1v-.212c.011-.781,1.454-.981,2.394-1.166.868-.242.813-.451.816-.646a2.365,2.365,0,0,1,1.072-1.931c.374-.135.534.05.489.241-.282,1.27.677.774.754.6.069-.2,1.584-1.871,1.412-3-.055-1.241-1.017-.455-1.335-.311-.435.5-1.261.5-.754-.14,0,0,1.072-1.139,0-1.781,0,0-1-.4.437-.389,1.4,0,2.468,1.589,2.464,2.863a2.92,2.92,0,0,1,2.622-2.86c1.374,0,.375.4.375.4-.934.635,0,1.773,0,1.773.567.639-.249.642-.748.144-.306-.153-1.323-.939-1.379.3-.073,1.136,1.375,2.81,1.493,3.007,0,0,.626.544.811-.148v-.445c-.055-.2.066-.4.389-.242a2.586,2.586,0,0,1,1.181,1.929c0,.2-.129.395.826.651.761.188,2.252.383,2.252,1.176v.2c0,.1,0,.1.182.09.255,0,.888.1,1.071.1.061,0,.565.049.058.293-.37.346-2.5.346-2.44.392a2.936,2.936,0,0,0,1.37.353c.565,0,.563.284,0,.291l-2.5-.165a3.5,3.5,0,0,1-1.894-.274,4.656,4.656,0,0,1-1.749.384,2.84,2.84,0,0,1-1.37-.254c-.261-.081-.319-.146,0-.395a3.045,3.045,0,0,1,2.311-.725,3.145,3.145,0,0,0-1.837-.144m.836-17.593a2.41,2.41,0,0,1,2.429,1.889c.617,2.154,1.153,4,1.171,3.993-.594-.381-1.178-.627-1.35-1.132-.505-1.492-.56-1.848-.852-2.752a1.665,1.665,0,0,0-1.521-1.264,1.6,1.6,0,0,0-1.7,1.032,1.612,1.612,0,0,0-1.728-1.029,1.694,1.694,0,0,0-1.533,1.251c-.306.9-.351,1.266-.861,2.758-.179.511-.757.751-1.346,1.125-.037-.007.563-1.841,1.175-3.99a2.418,2.418,0,0,1,2.449-1.88c1.241-.039,1.829.7,1.855,1.245.015-.545.57-1.28,1.811-1.245m-5.131,5.968c2.334,0,3.287,2.455,3.287,2.55,0-.1,1.023-2.54,3.344-2.547a3.916,3.916,0,0,1,4.133,2.882c.319.9,2.116,8.357,2.116,8.357s-1.34-.628-1.545-1.3c-1.114-3.67-1.26-4.991-1.873-7.109a2.857,2.857,0,0,0-2.978-1.916c-2.281-.023-3.2,2.763-3.2,2.763s-.836-2.777-3.146-2.777a2.836,2.836,0,0,0-2.954,1.925c-.633,2.112-.787,3.425-1.913,7.095-.209.679-1.576,1.294-1.576,1.294s1.852-7.451,2.175-8.348a3.922,3.922,0,0,1,4.132-2.87m3.4-7.828a.588.588,0,0,1,.651-.621.708.708,0,0,1,.7.5c.189.553.722,1.811.722,1.811-.163-.033-.736-.244-.865-.565-.183-.407-.356-.877-.4-.979-.219-.6-.706-.391-.808-.144m.211,4.258a.9.9,0,0,1,1.1-.827c.8.067,1.06.966,1.06.966.241.89.921,2.978.921,2.978-.253-.063-1.137-.43-1.33-.963-.232-.656-.186-.7-.484-1.685-.342-1.324-1.272-.469-1.272-.469m-.553,0s-.948-.849-1.3.472c-.3.981-.251,1.027-.5,1.692-.184.524-1.082.881-1.338.949,0,0,.69-2.085.947-2.97a1.347,1.347,0,0,1,1.089-.969.924.924,0,0,1,1.1.827m-5.072,7.143a2.237,2.237,0,0,1,2.5-1.85,1.742,1.742,0,0,1,1.391.881,1.628,1.628,0,0,0-1.84-.176,2.559,2.559,0,0,0-.849,1.248c-.564,1.82-.678,2.352-1.545,5.306-.166.629-1.362,1.213-1.486,1.208,0,0,1.588-5.675,1.831-6.617m5.318-6.445a8.43,8.43,0,0,0,1.449,2.207,2.559,2.559,0,0,0-1.463.967,2.321,2.321,0,0,0-1.378-.972,6.343,6.343,0,0,0,1.391-2.2m-.046-4.958c-.1-.247-.589-.455-.828.147-.045.1-.22.576-.393.979-.143.32-.712.537-.87.571,0,0,.524-1.262.734-1.813a.727.727,0,0,1,.708-.5.616.616,0,0,1,.651.621m.069.33a5.266,5.266,0,0,0,.784.964c-.69.211-.795.588-.795.588s-.1-.383-.751-.6a3.468,3.468,0,0,0,.762-.953m-6.42,23.383v4.01c0,.388-.031.806.423,1.008l-2.122.016c.5-.279.507-.606.518-1.064V107.57l-.838-.2a3.71,3.71,0,0,0,1.991-1.231h.028m1.3.17h3.68l-1.656,5.162a4.029,4.029,0,0,0-.205.856.717.717,0,0,0,.265.548l-1.874.023,1.885-5.509a3.75,3.75,0,0,0-.992-.125,2.32,2.32,0,0,0-1.516.462l.413-1.418m5.717,3.74a1.317,1.317,0,0,0-.487,1.064,1.213,1.213,0,0,0,1.111,1.334.889.889,0,0,0,.926-.918c0-.651-.607-.925-.98-1.153l-.57-.328m-.6-.444a1.93,1.93,0,0,1-.836-1.618,1.815,1.815,0,0,1,.706-1.492,2.375,2.375,0,0,1,1.436-.394,2.332,2.332,0,0,1,1.246.327,1.838,1.838,0,0,1,.738,1.473,1.4,1.4,0,0,1-.814,1.335A1.949,1.949,0,0,1,267,111.039a2.037,2.037,0,0,1-2.207,2.148,2.839,2.839,0,0,1-1.507-.414,1.913,1.913,0,0,1-.8-1.578,1.62,1.62,0,0,1,1.015-1.592m1.815-.839a1.143,1.143,0,0,0,.311-.838c0-.694-.391-1.275-.977-1.275a.719.719,0,0,0-.727.753c0,.676.73,1,1.145,1.229l.247.131m2.941.067v-.678c.71,0,1.356-.072,1.363-.681,0-.426-.4-.6-.812-.6a2.983,2.983,0,0,0-1.16.305l.278-.85a6.458,6.458,0,0,1,1.4-.176,2.156,2.156,0,0,1,1.012.248,1.136,1.136,0,0,1,.673.932.936.936,0,0,1-.739,1.015,1.224,1.224,0,0,1,1.084,1.3c0,1.167-1.209,1.641-2.331,1.639a6.872,6.872,0,0,1-1.3-.142l-.15-.928a2.737,2.737,0,0,0,1.235.339c.61,0,1.234-.288,1.237-.836,0-.828-1.058-.9-1.392-.893l-.272,0h-.124" transform="translate(-171.514 -55.432)" fill="#fff" fill-rule="evenodd"/>
  </g>
</svg>
