<svg xmlns="http://www.w3.org/2000/svg" fill="none" viewBox="0 0 92 52" height="52" width="92">
<g clip-path="url(#clip0_1034_23101)">
<path fill="white" d="M21.3105 29.0743H27.3767V32.9108H15.2654V29.4279L20.9755 23.2525H15.6116V19.416H27.0863V22.678L21.3105 29.0743Z"></path>
<path fill="white" d="M34.2109 19.416H29.7006V32.9108H34.2109V19.416Z"></path>
<path fill="white" d="M71.4468 19.416L69.3374 22.8505L67.315 19.416H62.2823L67.0581 26.8396V32.912H71.5696V26.8409L76.4422 19.416H71.4468Z"></path>
<path fill="#FF4141" d="M91.7634 0H0V52H91.7634V0Z"></path>
<path fill="white" d="M21.3377 28.9115H27.4052V32.7467H15.2939V29.2651L21.0027 23.0885H15.6401V19.252H27.1136V22.5152L21.3377 28.9115Z"></path>
<path fill="white" d="M34.2394 19.252H29.7292V32.7467H34.2394V19.252Z"></path>
<path fill="white" d="M71.4741 19.252L69.366 22.6877L67.3423 19.252H62.3109L67.0867 26.6768V32.748H71.5982V26.678L76.4695 19.252H71.4741Z"></path>
<path fill="white" d="M55.0151 25.4723H56.6678C57.7064 25.4723 58.797 25.3991 58.797 24.09C58.797 22.9076 57.8863 22.8356 56.9073 22.8356H55.0164V25.4723H55.0151ZM62.8321 23.9424C62.8321 25.5343 62.3221 26.7751 61.3146 27.6263C60.3939 28.4055 59.0688 28.8174 57.4843 28.8174H54.9692V32.7457H50.4602V19.251H57.8131C61.7824 19.251 62.8321 22.3194 62.8321 23.9411"></path>
<path fill="white" d="M41.3528 25.4723H43.0055C44.0428 25.4723 45.1335 25.3991 45.1335 24.09C45.1335 22.9076 44.2227 22.8356 43.2425 22.8356H41.3528V25.4723ZM49.1685 23.9424C49.1685 25.5343 48.6573 26.7751 47.651 27.6263C46.7304 28.4055 45.4052 28.8174 43.8207 28.8174H41.3057V32.7457H36.7954V19.251H44.1495C48.1188 19.251 49.1685 22.3194 49.1685 23.9411"></path>
<path fill="white" d="M74.9607 31.2193C75.0253 31.2193 75.1382 31.1834 75.1382 31.0208C75.1382 30.8868 75.0253 30.8372 74.9607 30.8372H74.7548V31.2193H74.9607ZM75.6059 31.9688H75.1233L74.9322 31.5866H74.7548V31.9688H74.2882V30.4314H74.9471C75.3578 30.4314 75.5985 30.7081 75.5985 30.9972C75.5985 31.1896 75.5203 31.3794 75.3429 31.4935L75.6059 31.9675V31.9688ZM76.0948 31.2193C76.0948 30.4476 75.5786 30.0009 74.8838 30.0009C74.189 30.0009 73.6939 30.4476 73.6939 31.2193C73.6939 31.9911 74.1964 32.4092 74.8838 32.4092C75.5712 32.4092 76.0948 31.9564 76.0948 31.2193ZM73.3179 31.2044C73.3179 30.2974 74.0202 29.6597 74.8838 29.6597C75.7474 29.6597 76.4708 30.2974 76.4708 31.2044C76.4708 32.1115 75.7561 32.748 74.8838 32.748C74.0115 32.748 73.3179 32.104 73.3179 31.2044Z"></path>
</g>
<defs>
<clipPath id="clip0_1034_23101">
<rect fill="white" height="52" width="91.7634"></rect>
</clipPath>
</defs>
</svg>
